<svg t="1564453005556" class="icon" viewBox="0 0 1102 1024" version="1.1" xmlns="http://www.w3.org/2000/svg" p-id="2584" width="200" height="200"><path d="M369.506462 796.041846a106.180923 106.180923 0 0 1 73.64923 29.617231c9.767385 9.216 17.171692 20.243692 22.370462 32.846769 5.198769 12.603077 7.876923 25.993846 7.876923 40.172308s-2.678154 27.569231-7.876923 40.172308c-5.198769 12.681846-12.603077 23.630769-22.291692 33.004307a114.609231 114.609231 0 0 1-33.476924 22.291693c-12.681846 5.592615-26.072615 8.428308-40.172307 8.428307-14.966154 0-28.514462-2.835692-40.802462-8.428307a117.051077 117.051077 0 0 1-32.925538-22.291693 95.704615 95.704615 0 0 1-22.370462-32.925538c-5.198769-12.603077-7.798154-26.072615-7.798154-40.172308 0-14.178462 2.599385-27.569231 7.876923-40.172308 5.198769-12.681846 12.603077-23.630769 22.291693-33.004307a103.345231 103.345231 0 0 1 73.649231-29.617231z m464.423384 2.205539c14.178462 0 27.726769 2.599385 40.802462 7.876923 12.996923 5.12 24.182154 12.366769 33.476923 21.661538 9.294769 9.373538 16.777846 20.322462 22.291692 33.004308 5.592615 12.603077 8.428308 25.993846 8.428308 40.172308s-2.835692 27.569231-8.428308 40.172307c-5.513846 12.603077-12.996923 23.630769-22.291692 32.925539a105.550769 105.550769 0 0 1-74.279385 30.72c-14.178462 0-27.569231-2.835692-40.172308-8.349539-12.603077-5.592615-23.630769-13.075692-32.925538-22.370461a107.283692 107.283692 0 0 1-22.291692-32.925539 98.461538 98.461538 0 0 1-8.428308-40.172307c0-14.178462 2.835692-27.569231 8.428308-40.172308 5.513846-12.681846 12.996923-23.630769 22.291692-33.004308a104.526769 104.526769 0 0 1 73.097846-29.617231z m187.628308-634.092308c20.795077 0 37.021538 2.756923 48.521846 8.349538 11.500308 5.513846 19.692308 12.445538 24.576 20.637539 4.804923 8.192 7.089231 16.935385 6.695385 26.230154a87.433846 87.433846 0 0 1-3.938462 24.024615l-13.942154 41.275077c-7.089231 20.873846-15.044923 43.716923-24.024615 68.686769-8.900923 24.891077-17.644308 49.624615-26.230154 74.200616-8.507077 24.576-15.044923 43.953231-19.534769 58.052923-9.688615 29.774769-21.897846 50.412308-36.785231 61.991384a86.646154 86.646154 0 0 1-54.744615 17.329231H336.029538l16.777847 100.430769h562.648615c35.761231 0 53.563077 15.281231 53.563077 45.764923a68.686769 68.686769 0 0 1-10.555077 38.596923c-7.089231 10.712615-21.031385 16.147692-41.905231 16.147693H331.618462a65.929846 65.929846 0 0 1-37.336616-10.082462 84.755692 84.755692 0 0 1-25.206154-26.230154 159.428923 159.428923 0 0 1-16.147692-35.131077 321.378462 321.378462 0 0 1-9.452308-35.76123l-6.144-32.295385a535597.686154 535597.686154 0 0 1-46.316307-245.602461c-14.178462-75.224615-30.168615-158.956308-48.049231-251.273847H59.155692a45.213538 45.213538 0 0 1-27.884307-8.349538 72.861538 72.861538 0 0 1-18.432-20.086154 77.351385 77.351385 0 0 1-10.082462-25.206154A121.147077 121.147077 0 0 1 0 51.436308C0 36.470154 5.041231 24.182154 15.044923 14.493538 25.206154 4.804923 38.675692 0 55.926154 0H168.566154c14.966154 0 26.781538 2.205538 35.761231 6.695385a60.652308 60.652308 0 0 1 32.295384 37.966769c2.363077 7.404308 4.174769 13.784615 5.671385 18.904615 1.417846 5.986462 2.914462 14.414769 4.411077 25.206154 1.575385 10.791385 2.993231 21.740308 4.489846 32.925539 2.205538 13.390769 4.489846 27.569231 6.695385 42.377846h763.667692z" p-id="2585"></path></svg>