<svg t="1585804221750" class="icon" viewBox="0 0 1024 1024" version="1.1" xmlns="http://www.w3.org/2000/svg" p-id="7117" width="200" height="200"><path d="M305.828 233.882l-99.722 2.322c73.726-98.245 187.824-155.787 312.62-155.787 203.467 0 370.997 152.558 389.688 354.863 1.927 20.857 19.452 36.514 39.991 36.514 1.237 0 2.489-0.059 3.746-0.174 22.112-2.043 38.382-21.625 36.339-43.738-10.77-116.582-64.409-224.523-151.035-303.939C750.273 44.017 637.08 0 518.726 0c-82.934 0-164.514 21.834-235.921 63.141-63.851 36.937-118.448 88.657-158.864 150.276l-88.604-70.328C68.646 223.384 86.142 340.756 89 431.582c57.05-70.717 141.818-153.762 216.828-197.7zM935.001 592.418c-57.051 70.717-141.819 153.763-216.829 197.7l99.723-2.322c-73.726 98.245-187.824 155.786-312.62 155.786-203.467 0-370.997-152.558-389.688-354.863-1.927-20.855-19.452-36.512-39.991-36.512a40.45 40.45 0 0 0-3.746 0.174c-22.112 2.043-38.382 21.625-36.339 43.736C46.28 712.7 99.919 820.642 186.545 900.058 273.727 979.983 386.92 1024 505.274 1024c82.934 0 164.514-21.834 235.921-63.141 63.851-36.937 118.447-88.657 158.864-150.275l88.604 70.328c-33.309-80.296-50.805-197.668-53.662-288.494z" p-id="7118"></path></svg>