<svg t="1563884870113" class="icon" viewBox="0 0 1024 1024" version="1.1" xmlns="http://www.w3.org/2000/svg" p-id="2615" width="200" height="200"><path d="M1006.10276 1006.230728c-23.692363 23.692363-63.179634 23.692363-82.923269 0l-185.590174-185.590174c-181.641447 138.205449-438.308709 126.359267-604.155247-39.487271-177.69272-177.69272-177.69272-469.898525 0-647.591245 177.69272-177.69272 469.898525-177.69272 647.591245 0 165.846538 165.846538 177.69272 422.5138 39.487271 604.155247l185.590174 185.590174c23.692363 19.743636 23.692363 59.230907 0 82.923269zM694.153319 212.53658a338.493662 338.493662 0 0 0-481.744707 0c-134.256722 134.256722-134.256722 347.487985 0 477.79598a338.493662 338.493662 0 0 0 481.744707 0c134.256722-130.307994 134.256722-343.539258 0-477.79598z" fill="#4D555D" p-id="2616"></path></svg>